/* XPM */
static char *bin_document[]={
"16 16 40 1",
"a c #9c9cb6",
"n c #c9c9da",
"s c #ccccdb",
"r c #cecedd",
"# c #d0d0df",
"v c #d2d2e0",
"i c #d3d3e1",
"u c #d5d5e4",
"m c #d7d7e5",
"B c #d8d8e6",
"q c #dadae7",
"A c #dbdbe8",
"z c #dcdce9",
"F c #dedeeb",
"y c #e0e0ec",
"I c #e1e1ed",
"J c #e4e4ee",
"E c #e5e5ef",
"l c #e6e6f0",
"x c #e7e7f0",
"H c #e8e8f1",
"d c #e9e9f2",
"G c #eaeaf3",
"e c #ebebf4",
"h c #ececf4",
"p c #eeeef5",
"j c #efeff6",
"L c #f0f0f7",
"k c #f1f1f8",
"o c #f2f2f9",
"t c #f3f3f9",
"c c #f5f5fc",
"D c #f6f6fd",
"g c #f8f8fe",
"b c #f9f9fe",
"K c #fafaff",
"f c #fcfcff",
"C c #fdfdff",
"w c #fefeff",
". c #ffffff",
"..########a.....",
"..#...bcde#a....",
"..#...fghe#ia...",
"..#...abjeaaaa..",
"..#..aabkelmna..",
"..#...afopqrsa..",
"..#..aaateuv#a..",
"..#..wbcxyzABa..",
"..#.wCDplEyFza..",
"..#..bapGHaIya..",
"..#.CakaeaaJya..",
"..#.KakaeGaEIa..",
"..#.ctaLpaaaIa..",
"..#.toLjhGlEIa..",
"..#fttkjeGxEIa..",
"..aaaaaaaaaaaa.."};
