/* XPM */
static char *sim_document[]={
"16 16 8 1",
"a c #000000",
"b c #00ff00",
"d c #585858",
"f c #800000",
"# c #808080",
"e c #a0a0a0",
"c c #ff0000",
". c #ffffff",
"...#aaaaaaa#....",
"..abaaabaaaba...",
".aabaaabaaabaa..",
"#aaaaaaaaaaaaa#.",
"aaacaaacaaacaad.",
"aaacaaacaaacaade",
"aaacaaacaaacaade",
"aaacaaacaaacaade",
"aaaccaacacacaade",
"acacacacacccacfe",
"acccacacccacccde",
"caacaaccaaacaade",
".aaaaaaaaaaaade.",
"..aaaaaaaaaadee.",
"...#ddddddddee..",
"....eeeeeeee...."};
