/* XPM */
static char *folder_green_open[]={
"16 16 127 2",
".9 c #05770c",
"#i c #068206",
"#h c #0b7f10",
"#. c #0c750c",
".X c #1d7e21",
".M c #238823",
"#G c #299c30",
"#g c #2aaa2a",
"#s c #2fa831",
"#r c #34bc33",
".Y c #389538",
".y c #38ac38",
"#Q c #41a448",
"#2 c #43ba48",
".L c #45ac4c",
"#6 c #4dcd4e",
".8 c #4eae52",
"#Y c #4eaf53",
"## c #519e51",
"#A c #51e251",
"#q c #53d353",
"#B c #54d354",
".V c #5bbe60",
"#X c #5ebf62",
"#f c #5fcd5c",
"#k c #62a563",
".K c #62c664",
".q c #65e565",
".W c #66c46a",
".1 c #67e167",
".U c #69cf69",
".I c #6ac16b",
"#R c #6db371",
".D c #6de66d",
".7 c #70d171",
"#c c #71cc73",
"#b c #74ec73",
"#m c #77ed77",
"#L c #79ed7c",
".J c #7ac97c",
".6 c #7de17b",
".S c #81cc81",
"#1 c #81dc83",
".C c #85f285",
"#t c #86af90",
".P c #86f186",
"#n c #88db87",
".x c #89cc86",
".l c #89d589",
".w c #8ac093",
"#e c #8cef88",
"#w c #8eb68e",
".Q c #8ed791",
".k c #90b4a2",
"#y c #92de91",
".4 c #93dc8f",
"#K c #93de92",
"#p c #93ff89",
".H c #94d296",
"#5 c #95e796",
"#T c #97dc9b",
"#U c #9ae299",
"#j c #9bacae",
".5 c #9df097",
".T c #9eeb9b",
".0 c #a0f7a0",
"#C c #a6cdac",
".3 c #a8e1a9",
"#l c #a9f0a9",
".o c #a9f7a9",
"#d c #aaff9f",
"#F c #abb6ba",
"#M c #abe3ae",
".p c #abf2aa",
".O c #aef4ae",
"#J c #b0f3b1",
".v c #b4d4b9",
"#Z c #b5e7bb",
"#0 c #b5eab6",
".n c #baf6ba",
"#4 c #bde9bf",
"#z c #bdeebe",
".B c #bdf7bd",
"#x c #c0f0c0",
".Z c #c1f4c1",
".e c #c2cde1",
".f c #c3f1c2",
"#P c #c5ced2",
"#v c #cebfe6",
".2 c #cfd9d8",
"#H c #d0d6d0",
"#u c #dac4f0",
"#I c #daf4da",
".r c #e5e4ec",
"#E c #e6d2f6",
".a c #e6e9f4",
"#8 c #e7ede7",
".b c #e8eaf3",
".# c #e8ecfb",
"#D c #ead5f8",
"#7 c #ebebeb",
".g c #ebedf2",
".j c #eceaf4",
".E c #ede7f3",
".i c #efeff6",
"#W c #f0ecf7",
"#a c #f0fcf0",
"#3 c #f6f6f6",
"#O c #f7e3ff",
".s c #f7f5fc",
"#o c #f9edff",
".t c #f9f2ff",
".c c #f9f8fb",
".d c #f9f8fd",
".N c #f9f9f9",
"#N c #fae7ff",
".u c #fbeeff",
"#S c #fbfbfb",
".m c #fbfffb",
".z c #fcfcfc",
".A c #fcfffc",
".h c #fdfcfe",
".F c #fefcff",
"#V c #fff7ff",
".G c #fff8ff",
".R c #fffeff",
"Qt c #ffffff",
"QtQtQtQtQtQtQtQtQt.#QtQtQtQtQtQt",
"QtQtQtQtQtQtQtQt.aQtQtQtQtQtQtQt",
"QtQtQtQtQtQtQt.b.c.d.eQtQtQtQtQt",
"QtQtQtQt.fQt.g.h.i.jQt.kQt.lQtQt",
".m.n.o.p.q.rQt.s.t.u.v.w.x.y.zQt",
".A.B.C.D.EQt.F.G.H.I.J.K.L.M.NQt",
"Qt.O.P.QQtQt.R.S.T.U.V.W.X.YQtQt",
"Qt.Z.0.1.2.3.4.5.6.7.8.9#.##QtQt",
"Qt#a.n#b#cQt#d#e#f#g#h#i#j#kQtQt",
"QtQt#l#m#n#o#p#q#r#s#t#u#v#wQtQt",
"QtQt#x.P#y#z#A#B#C#D#E#F#G#HQtQt",
"QtQt#I#J#K#L#M#N#O#P#Q#R#SQtQtQt",
"QtQtQt#T#U.R#V#W#X#Y#SQtQtQtQtQt",
"QtQtQt#Z#0Qt#1#2#3QtQtQtQtQtQtQt",
"QtQtQt#4#5#6#7QtQtQtQtQtQtQtQtQt",
"QtQtQtQt#8QtQtQtQtQtQtQtQtQtQtQt"};
