/* XPM */
static char *folder_green[]={
"16 16 134 2",
"#h c #009c00",
"#i c #048a03",
".5 c #058403",
"ac c #089b08",
".6 c #097209",
".4 c #0c9813",
".U c #107814",
".z c #158016",
"#u c #18b415",
".y c #1b7e28",
".W c #1b7f1b",
".K c #1e7d1f",
"a. c #209a20",
".b c #20a721",
"#g c #25ab2f",
".J c #268530",
"#O c #279a2a",
".7 c #288a28",
"#Y c #28982a",
".T c #2ba730",
".N c #2bb92a",
".V c #2d832d",
".q c #2e942e",
".i c #2e992e",
"#t c #32be3c",
"#l c #339138",
".f c #34c82e",
"#5 c #399c39",
"#4 c #3aa33c",
".p c #3b973b",
"#E c #3db540",
"#2 c #41c140",
".3 c #47c048",
".L c #4e9f4e",
"#T c #4fc04c",
".I c #51bf4f",
".2 c #53d055",
"#G c #54e05a",
"#H c #55d35c",
".n c #56be60",
".u c #58be57",
"#9 c #58be58",
".S c #59c65b",
".m c #5abc60",
"#f c #5ad55a",
"#n c #5fb363",
".D c #5fc65f",
"ab c #5fce5e",
"#s c #61e362",
"#e c #62de64",
".o c #63c262",
"#Z c #64a964",
"#7 c #64bf64",
".Y c #64c964",
".a c #66ce65",
".x c #69c776",
"#p c #6dc470",
".H c #71d074",
".G c #78d977",
"#r c #78eb77",
".R c #7bd97c",
".h c #7cd079",
".C c #7dd07d",
".w c #7ddc7b",
".t c #7ec881",
"#j c #7fb38b",
".8 c #7fb680",
".1 c #80e27f",
"#z c #82ab92",
".Q c #84e481",
"#S c #85f486",
"#D c #87f586",
"#N c #89b394",
".F c #89ea85",
"#v c #8cc891",
"#d c #8ded86",
".0 c #8def86",
".P c #8df284",
".j c #94c594",
"#1 c #95da95",
".v c #97e295",
"#8 c #9ad598",
"#F c #9ae499",
"#R c #9fe59f",
"#Q c #a0e2a0",
"#I c #a3e3a4",
"#c c #a6fc9f",
".E c #a7f1a3",
".Z c #acf9a6",
".g c #adeaaa",
"#b c #b2e2b2",
"#B c #b2f5b2",
"#P c #b3c8b3",
"#q c #b6ffa9",
"#U c #b8f7b6",
"#0 c #b9e6b9",
"#X c #bbd2c5",
"#A c #bdd5bd",
"#C c #bdf6bd",
".k c #c2c7d9",
".d c #c2c8e6",
".O c #c2fdbd",
"#o c #c4bcd4",
".# c #c6f0c6",
".r c #c9ccdb",
"#6 c #cfeccf",
".B c #d0d0dc",
".M c #d1d2d6",
".c c #d3dbf3",
"#y c #d4c5e7",
"#x c #d5cbe6",
"#a c #d7f4d7",
"ad c #dee2de",
".A c #dee8de",
"#m c #dff6df",
"#. c #e1d3e7",
"#L c #e3dcee",
"#k c #e5c8fb",
"#M c #e7d8f6",
".X c #eeeeed",
"#K c #f0e4f9",
"#w c #f1dbfe",
"a# c #f2f2f2",
"aa c #f2f9f2",
".9 c #f4f2f4",
".e c #f5f8fb",
"#3 c #f5f9f7",
"#V c #fcf5ff",
".l c #fef3ff",
"#J c #fff3ff",
"#W c #fff4ff",
".s c #fff5ff",
"## c #fffbff",
"Qt c #ffffff",
"QtQtQtQtQtQtQtQtQtQtQtQtQtQtQtQt",
"QtQtQtQtQtQtQtQtQt.#.a.bQtQtQtQt",
"QtQtQtQtQt.c.d.e.f.g.h.i.jQtQtQt",
"QtQtQtQt.kQtQt.l.m.n.o.p.qQtQtQt",
"QtQtQt.rQt.s.t.u.v.w.x.y.z.AQtQt",
"QtQt.BQt.C.D.E.F.G.H.I.J.K.LQtQt",
"Qt.MQt.NQt.O.P.Q.R.S.T.U.V.WQtQt",
".XQtQt.YQt.Z.0.1.2.3.4.5.6.7.8Qt",
".9#.###a#b#c#d#e#f#g#h#i#j#k#lQt",
"Qt#m#n#o#p#q#r#s#t#u#v#w#x#y#z#A",
"Qt#B#C#D#E#F#G#H#I#J#K#L#M#N#O#P",
"QtQt#Q#R#S#T#UQtQt#V#W#X#Y#ZQtQt",
"QtQtQt#0#1#2QtQtQt#3#4#5QtQtQtQt",
"QtQtQtQt#6#7#8Qt#9a.a#QtQtQtQtQt",
"QtQtQtQtQtaaabacadQtQtQtQtQtQtQt",
"QtQtQtQtQtQtQtQtQtQtQtQtQtQtQtQt"};
