/* XPM */
static char *geda[]={
"32 32 6 1",
". c None",
"c c #000000",
"a c #005000",
"# c #008b00",
"d c #757373",
"b c #ffffff",
"................................",
"................................",
"................................",
"................................",
"................................",
"...########.....................",
"..a#bbbbbbb#....................",
"ccc#bbbbbbbb#...................",
"dda#bbbbbbbb#...................",
"..a#bbbbbbbb#cccc...............",
"..a#bbbbbbbb#dddc...............",
"ccc#bbbbbbbb#...c..########.....",
"dda#bbbbbbb#a...c.a#bbbbbbb#....",
"..a########a....ccc#bbbbbbbb#...",
"..aaaaaaaaa.....dda#bbbbbbbb#...",
"..................a#bbbbbbbb#ccc",
"..................a#bbbbbbbb#ddd",
"...########.....ccc#bbbbbbbb#...",
"..a#bbbbbbb#....cda#bbbbbbb#a...",
"ccc#bbbbbbbb#...c.a########a....",
"dda#bbbbbbbb#...c.aaaaaaaaa.....",
"..a#bbbbbbbb#cccc...............",
"..a#bbbbbbbb#ddd................",
"ccc#bbbbbbbb#...................",
"dda#bbbbbbb#a...................",
"..a########a....................",
"..aaaaaaaaa.....................",
"................................",
"................................",
"................................",
"................................",
"................................"};
