/* XPM */
static char *html_document[]={
"16 16 157 2",
"#Q c #0011cb",
"#C c #001acf",
"#W c #0030b6",
"#I c #0031c8",
"#n c #003be1",
"as c #114fa9",
"#t c #1157aa",
"#e c #115eac",
".i c #1160b0",
"#u c #1160e9",
"#N c #1161f3",
"#O c #134fd5",
"## c #176dfd",
".W c #1c77ff",
"at c #1d59aa",
".j c #1e65af",
"#3 c #2162ed",
"ah c #2166c6",
"#H c #2369bb",
"#7 c #256ec1",
".O c #257fd6",
"#J c #266df3",
"#f c #268efd",
"ar c #2762b6",
"#B c #2c7cfe",
"#A c #2c95ff",
"#v c #2c99ff",
"#m c #309bff",
"ai c #3268d5",
".w c #3381d3",
".2 c #347cc1",
"#z c #359eff",
"#o c #3663e1",
"ag c #3781c7",
"#. c #379fff",
".h c #397bbb",
"#a c #3b78de",
"#p c #3c6aa8",
"#E c #3d6ba9",
".H c #3d8ceb",
"#l c #3ea5ff",
"#P c #407bf4",
"#2 c #417cf3",
"#R c #417fe0",
"am c #418bd4",
".V c #41a7ff",
"#D c #4582ee",
".G c #45aaff",
"au c #477cbe",
".q c #4a90c7",
".k c #4b83c0",
".z c #4b8ec7",
".r c #4d96cb",
"#4 c #528dcd",
".X c #548dce",
"ab c #559bea",
".v c #58abf5",
"#k c #5abaff",
".9 c #5bbaff",
"#8 c #5fa0e8",
".3 c #5fadf3",
"#S c #6387b9",
"#b c #6489ba",
"an c #658cbe",
".A c #66b8f3",
".x c #6890c1",
"ac c #698cbc",
".I c #6c8fbe",
".U c #6fcaff",
".F c #75ceff",
"aj c #779ef1",
"#j c #7bd1ff",
"#V c #7eaedb",
".8 c #81d8ff",
"aq c #82afdb",
".s c #83cef5",
".g c #87b2da",
"#0 c #87b7ff",
"#X c #87c1ff",
".u c #87daff",
"al c #89c8f5",
".N c #8eb8db",
"ak c #8eb9fa",
"#g c #90e6ff",
"#5 c #97aed0",
"aa c #98d5ff",
"#w c #98e5ff",
".Y c #9ab0d1",
"av c #9bb2d2",
".a c #9c9cb6",
".7 c #9decff",
".T c #9fedff",
".l c #a3b9d7",
"#K c #a3ddff",
"#i c #a3e7ff",
"#1 c #a6ddff",
".6 c #a6f1ff",
"#y c #a7e7ff",
".E c #a7f3ff",
".t c #adeeff",
"#M c #b1eaff",
".P c #bef4ff",
"#L c #c2f7ff",
"ao c #c3cee3",
".y c #c4cfe3",
"af c #c4d8ec",
"a# c #c7f9ff",
".B c #c8ffff",
".M c #c9c9da",
".p c #cbddec",
".S c #cbffff",
".1 c #ccccdb",
"#x c #cdfeff",
".0 c #cecedd",
".# c #d0d0df",
"#9 c #d1feff",
"#d c #d2d2e0",
".o c #d3d3e1",
"#c c #d5d5e4",
"ad c #d5dbea",
".J c #d6dbeb",
".L c #d7d7e5",
"#s c #d8d8e6",
"#h c #d8ffff",
"aw c #d9dfed",
".Z c #dadae7",
"#r c #dbdbe8",
".4 c #dbffff",
"#q c #dcdce9",
"#G c #dedeeb",
".D c #dfffff",
"#F c #e0e0ec",
"#Y c #e0ffff",
"#U c #e1e1ed",
".m c #e2e7f4",
"#6 c #e4e4ee",
"#T c #e5e5ef",
".K c #e6e6f0",
".5 c #e6ffff",
"ae c #e7e7f0",
".f c #e8eef5",
".d c #e9e9f2",
"#Z c #e9ffff",
"ap c #eaeaf3",
"a. c #eaffff",
".e c #ebebf4",
".n c #ececf4",
"aA c #efeff6",
"az c #f1f1f8",
".Q c #f1ffff",
"ay c #f3f3f9",
".R c #f3ffff",
".c c #f5f5fc",
".b c #f9f9fe",
".C c #f9ffff",
"ax c #fcfcff",
"Qt c #ffffff",
"QtQtQtQt.#.#.#.#.#.#.#.#.aQtQtQt",
"QtQtQtQt.#QtQtQt.b.c.d.e.#.aQtQt",
"QtQt.f.g.h.i.j.k.l.m.n.e.#.o.aQt",
"Qt.p.q.r.s.t.u.v.w.x.y.e.a.a.a.a",
".f.z.A.B.C.D.E.F.G.H.I.J.K.L.M.a",
".N.O.P.Q.R.S.T.U.V.W.X.Y.Z.0.1.a",
".2.3.4.5.6.7.8.9#.###a#b#c#d.#.a",
"#e#f#g#h#i#j#k#l#m#n#o#p#q#r#s.a",
"#t#u#v#w#x#y#z#A#B#C#D#E#F#G#q.a",
"#H#I#J#K#L#M#N#O#P#Q#R#S#T#U#F.a",
"#V#W#X#L#Y#Z#0#1#2#3#4#5.K#6#F.a",
".f#7#8#9.RQta.a#aaabacadae#T#U.a",
"Qtafagahaiajakalamanaoapae#T#U.a",
"QtQt.faqarasatauavaw.nap.K#T#U.a",
"QtQtQtQt.#axayayazaA.eapae#T#U.a",
"QtQtQtQt.a.a.a.a.a.a.a.a.a.a.a.a"};
