/* XPM */
static char *pcb_document[]={
"16 16 76 2",
".# c #000000",
"#i c #757575",
".6 c #808080",
".M c #8c8c8c",
".n c #909090",
".z c #959595",
".L c #979797",
".l c #989898",
".w c #999999",
"#j c #9a9a9a",
"#f c #9b9b9b",
".5 c #a1a1a1",
"#g c #a2a2a2",
".W c #a3a3a3",
".q c #a5a5a5",
".P c #a7a7a7",
".S c #aaaaaa",
".t c #aeaeae",
".Q c #afafaf",
".2 c #b0b0b0",
"#a c #b1b1b1",
".I c #b2b2b2",
".T c #b3b3b3",
".i c #b5b5b5",
".u c #b7b7b7",
".f c #b8b8b8",
".Z c #bbbbbb",
"#e c #bcbcbc",
".8 c #bdbdbd",
".r c #bebebe",
".B c #bfbfbf",
".Y c #c0c0c0",
"#. c #c2c2c2",
".a c #c3c3c3",
".4 c #c4c4c4",
".o c #c6c6c6",
".N c #c7c7c7",
".c c #c8c8c8",
"#h c #c9c9c9",
"#b c #cccccc",
".O c #cecece",
".V c #d0d0d0",
".E c #d1d1d1",
".p c #d3d3d3",
".X c #d5d5d5",
"## c #d6d6d6",
".K c #d7d7d7",
".3 c #d8d8d8",
".s c #d9d9d9",
".x c #dadada",
".1 c #dbdbdb",
".A c #dddddd",
".9 c #e0e0e0",
".U c #e1e1e1",
".g c #e2e2e2",
".y c #e4e4e4",
".7 c #e5e5e5",
".j c #e6e6e6",
".v c #e7e7e7",
".h c #e9e9e9",
".R c #eaeaea",
".C c #ebebeb",
".e c #ededed",
".G c #eeeeee",
".J c #f0f0f0",
".H c #f3f3f3",
".F c #f4f4f4",
"#c c #f5f5f5",
"#d c #f6f6f6",
".m c #f7f7f7",
".k c #f8f8f8",
".0 c #f9f9f9",
".d c #fafafa",
".b c #fbfbfb",
".D c #fcfcfc",
"Qt c #ffffff",
"QtQtQtQtQtQtQtQtQtQtQtQtQtQtQtQt",
"Qt.#.#.a.a.a.a.a.a.a.a.a.a.#.#Qt",
"Qt.#.b.cQt.d.aQt.e.f.g.h.i.j.#Qt",
"Qt.#.k.lQt.m.nQt.o.p.q.r.s.t.#Qt",
"Qt.#Qt.rQtQt.uQt.v.w.x.y.z.A.#Qt",
"Qt.#.m.B.C.D.EQt.F.u.G.H.I.J.#Qt",
"Qt.#.K.a.L.F.MQt.N.O.P.B.p.Q.#Qt",
"Qt.#.R.S.cQt.TQt.U.q.V.A.W.X.#Qt",
"Qt.#.D.Y.k.D.Z.0Qt.1.0.b.2.d.#Qt",
"Qt.#.3.Y.w.V.4.5.J.6Qt.Y.O.2.#Qt",
"Qt.#.7.I.8.9.I#.Qt.PQt###a#b.#Qt",
"Qt.#.b.Z#c.d.i#d.D.i.d.D#b.b.#Qt",
"Qt.#.3#e#f.E.Y#g#h.4.S.R#iQt.#Qt",
"Qt.#.U.Z#a.1#e.u.X.r.8Qt#jQt.#Qt",
"Qt.#.#.a.a.a.a.a.a.a.a.a.a.#.#Qt",
"QtQtQtQtQtQtQtQtQtQtQtQtQtQtQtQt"};
