/* XPM */
static char *pdf_document[]={
"16 16 119 2",
".a c #9494ad",
"#M c #ac8183",
"#z c #b74331",
"#U c #b8bbc9",
"#F c #bdb4ba",
"#T c #be5245",
"#n c #be7570",
"#v c #bfb9c0",
".D c #bfbfd0",
"#c c #c0abb4",
".N c #c2c2d1",
".5 c #c3becb",
"#Z c #c47267",
".M c #c4c4d3",
"#G c #c5c9d2",
".i c #c6bfcc",
".q c #c6c3d1",
".# c #c6c6d5",
"#u c #c75e4f",
"#S c #c84030",
".U c #c8c8d6",
".p c #c9c9d7",
"#k c #cabcc2",
".T c #cbcbd9",
"#K c #cc5041",
"#r c #ccb3b2",
".C c #cdcdda",
"#R c #ce2b1c",
".4 c #cecedb",
"#. c #cfaeaf",
".L c #d0d0dc",
".3 c #d1d1dd",
"#q c #d2837b",
".2 c #d2d2de",
"#i c #d35847",
"#j c #d36858",
"#t c #d45341",
"#b c #d4d4e0",
"#L c #d51e0f",
"#a c #d5d4df",
".W c #d68678",
"#s c #d6a19e",
".7 c #d6c5c5",
".1 c #d6d6e1",
"#h c #d7341c",
"#g c #d76a5d",
".Y c #d78f85",
"#l c #d7d7e2",
"#P c #d7d8e1",
"#B c #d8ced0",
"#p c #d98075",
"#A c #d9a49b",
".t c #d9bcb9",
"## c #d9d0d8",
"#w c #d9d9e3",
"#d c #da7767",
"#H c #dadae4",
".B c #dbdbe5",
".G c #dcb3ae",
".l c #dcbab7",
"#E c #dcc8cd",
".0 c #dcdce5",
"#0 c #dce3e3",
"#C c #dddce2",
".9 c #de4c37",
".y c #ded3d3",
".g c #dedee7",
"#Y c #df3424",
"#o c #df5f48",
"#W c #dfdfe8",
".Q c #e05a44",
".h c #e0e0e9",
".o c #e1e1e9",
".X c #e36b58",
"#e c #e3cbc9",
".K c #e3e3ea",
".v c #e4e4eb",
"#D c #e4e6ed",
".Z c #e4e7ee",
".6 c #e56e5b",
".R c #e5e5e8",
"#O c #e5e5ec",
".A c #e6e6ed",
"#Q c #e76b5c",
".J c #e7e7ee",
"#J c #e88c7e",
".d c #e8e1e3",
".S c #e8e8ee",
".x c #e93e23",
"#f c #e9c7c4",
"#N c #e9eff2",
".P c #ea3a1c",
".8 c #ead4d4",
".f c #eaeaf0",
".k c #eb3517",
"#y c #eb5b49",
".s c #ed2f11",
".c c #ed6b56",
".V c #eda093",
".n c #ededf2",
".u c #edeff3",
".m c #edeff4",
".F c #ee391c",
".e c #eeeef2",
"#X c #ef7668",
".O c #f0d5d0",
".I c #f0f0f4",
".H c #f0f1f6",
".z c #f1f1f5",
".j c #f36c55",
".r c #f3806d",
".b c #f3c3bc",
"#x c #f3c6bf",
".w c #f3cdc6",
"#V c #f3f3f6",
".E c #f5eae9",
"#I c #fbf6f5",
"#m c #fdfaf9",
"Qt c #ffffff",
"QtQtQtQt.#.#.#.#.#.#.#.#.aQtQtQt",
"QtQtQtQt.#.b.c.d.e.f.g.h.#.aQtQt",
"QtQtQtQt.i.j.k.l.m.n.o.h.#.p.aQt",
"QtQtQtQt.q.r.s.t.u.e.v.h.a.a.a.a",
"QtQtQtQt.#.w.x.y.z.e.A.h.B.C.D.a",
"QtQtQtQt.#.E.F.G.H.I.J.K.L.M.N.a",
"QtQtQtQt.#.O.P.Q.R.I.S.h.T.U.#.a",
"QtQtQtQt.#.V.W.X.Y.Z.0.1.2.3.4.a",
"QtQtQtQt.5.6.7.8.9#.#####a#b.2.a",
"QtQtQtQt#c#d#e#f#g#h#i#j#k#l.1.a",
"QtQtQt#m#n#o#p#q#r#s#t#u#v#w.1.a",
"QtQt#x#y#z#A#B#C#D.v#E#F#G#H#l.a",
"#I#J#K#L#M#N.f.S.A#O.K.g#P#H#l.a",
"#Q#R#S#T#U#V.S.J#O.v.o#W.B#H#l.a",
"#X#Y#Z#0.#.I.S.S.A.v.h#W.0#H#l.a",
"QtQtQtQt.a.a.a.a.a.a.a.a.a.a.a.a"};
