/* XPM */
static char *sch_document[]={
"16 16 10 1",
"# c #000000",
"b c #000080",
"h c #0000ff",
"d c #00ff00",
"f c #00ffff",
"a c #c3c3c3",
"g c #ff0000",
"c c #ff8000",
"e c #ffff00",
". c #ffffff",
".##############.",
"#.............a#",
"#.bbbbbbbbbbbba#",
"#.cbdddddddddba#",
"#.bbbebbbbbbbba#",
"#.bbbbbbbbbbbba#",
"#.bbbfeegbbbbba#",
"#.bbbbbbbbbbbba#",
"#.cbhhhddddddba#",
"#.bbbbbbbbbbbba#",
"#.cbhhhhhddddba#",
"#.bbbbbbbbbbbba#",
"#.bbdddddddddba#",
"#.bbbbbbbbbbbba#",
"#aaaaaaaaaaaaaa#",
".##############."};
