/* XPM */
static char *document[]={
"18 18 95 2",
".k c #303030",
".o c #424242",
".# c #585858",
".n c #6b6b6b",
".h c #6d6d6d",
".i c #707070",
".m c #898989",
"#e c #8e8270",
"#d c #8f8575",
".s c #8f8984",
"#c c #91887a",
".Y c #91887b",
"#b c #928b7f",
".X c #928b80",
"#a c #938d84",
".W c #948e85",
".K c #948f86",
"## c #949089",
".V c #95918a",
".J c #95918b",
".I c #97948f",
".H c #989794",
".e c #999999",
".G c #9a9a9a",
".l c #9b9b9b",
".t c #aaaaaa",
"#z c #ababab",
".p c #b5b5b5",
"#A c #b8b8b8",
"#y c #b9b9b9",
"#x c #bc9e73",
"#o c #bca178",
"#g c #bca37f",
".9 c #bca685",
".0 c #bca88a",
".T c #bcab90",
".F c #bcae97",
".d c #bcb7b1",
"#w c #bda076",
"#v c #bea57f",
".y c #beb6af",
"#u c #bfaa88",
"#t c #c0af91",
"#s c #c2b39a",
"#r c #c3b8a3",
"#q c #c4bdac",
"#p c #c6c1b6",
".j c #cecece",
".c c #dedede",
".z c #dfdfdf",
".r c #e2e0de",
"#n c #e5cca7",
".f c #e6e6e6",
"#f c #e7d1b0",
".x c #e7e0d9",
"#m c #e9d6b8",
".8 c #e9d6ba",
".g c #eaeaea",
"#l c #ecdabf",
".Z c #ecdbc2",
".7 c #ecdcc1",
".S c #ecdfca",
".L c #ece2d4",
"#k c #eedec8",
".6 c #eee0c9",
".E c #eee7dc",
".u c #eeeeee",
"#C c #efefef",
"#j c #f0e4d0",
".5 c #f0e4d2",
".R c #f1e6d4",
".a c #f1f1f1",
"#i c #f2e8d8",
".4 c #f2e9da",
".Q c #f3eadc",
".D c #f3ede3",
"#h c #f4ede1",
".w c #f4f0ec",
".3 c #f5eee2",
".P c #f5eee4",
".q c #f6f5f5",
"#. c #f7f1e9",
".2 c #f8f2ea",
".O c #f8f3eb",
".C c #f8f4ed",
".1 c #faf6f2",
".N c #faf8f4",
".B c #fbf8f5",
".v c #fbf9f6",
".U c #fcfcfb",
".b c #fcfcfc",
".M c #fdfdfc",
"#B c #fdfdfd",
".A c #fefefe",
"Qt c #ffffff",
"QtQtQtQt.#.#.#.#.#.#.#.#.#.a.bQtQtQt",
"QtQtQtQt.#.c.c.c.c.c.d.#.e.#.f.bQtQt",
"QtQtQtQt.#.cQtQtQtQt.g.hQt.e.#.f.bQt",
"QtQtQtQt.#.cQtQtQtQt.b.i.jQt.e.k.f.b",
"QtQtQtQt.#.cQt.l.l.lQt.m.i.n.o.k.p.a",
"QtQtQtQt.#.cQtQtQtQtQt.q.r.d.s.k.t.u",
"QtQtQtQt.#.cQt.l.l.l.l.v.w.x.y.k.t.u",
"QtQtQtQt.#.zQtQtQt.A.B.C.D.E.F.k.t.u",
"QtQtQtQt.#.cQt.l.G.H.I.J.K.L.F.k.t.u",
"QtQtQtQt.#.cQt.M.N.O.P.Q.R.S.T.k.t.u",
"QtQtQtQt.#.c.U.H.I.V.W.X.Y.Z.0.k.t.u",
"QtQtQtQt.#.c.1.2.3.4.5.6.7.8.9.k.t.u",
"QtQtQtQt.#.c#.###a#b#c#d#e#f#g.k.t.u",
"QtQtQtQt.#.c#h#i#j#k#l#m#f#n#o.k.t.u",
"QtQtQtQt.##p#p#q#r#s#t#u#v#w#x.k.t.u",
"QtQtQtQt.#.k.k.k.k.k.k.k.k.k.k.k.t.u",
"QtQtQtQt.a#y#z.t.t.t.t.t.t.t.t.t#A.a",
"QtQtQtQt#B.a#C.u.u.u.u.u.u.u.u.u.a.b"};
