/* XPM */
static char * gschem_bus_xpm[] = {
"24 24 4 1",
" 	c None",
".	c #00008B8B0000",
"X	c #000050500000",
"o	c #000000000000",
"                        ",
"                        ",
"  ....................  ",
" X....................  ",
" X..XXXXXXXXXXXXXXXXX   ",
" X..                    ",
" X..                    ",
" X..                    ",
" X..o                   ",
" X.. o                  ",
" X..  o o o o o o o o   ",
" X..o                   ",
" X.. o                  ",
" X..  o o o o o o o o   ",
" X..o                   ",
" X.. o                  ",
" X..  o o o o o o o o   ",
" X..                    ",
" X..                    ",
" X..                    ",
" X..                    ",
" XX                     ",
"                        ",
"                        "};
