/* XPM */
static char * comp_xpm[] = {
"24 24 3 1",
"       c None",
".	c #008B00",
"X	c #000000",
"                        ",
"                        ",
"  ....................  ",
"  ....................  ",
"  ..                    ",
"  ..                    ",
"  ..                    ",
"  ..                    ",
"  ..X                   ",
"  .. X                  ",
"  ..  X X X X X X X X   ",
"  ..X                   ",
"  .. X                  ",
"  ..  X X X X X X X X   ",
"  ..X                   ",
"  .. X                  ",
"  ..  X X X X X X X X   ",
"  ..                    ",
"  ..                    ",
"  ..                    ",
"  ..                    ",
"                        ",
"                        ",
"                        "};
