/* XPM */
static char * comp_xpm[] = {
"24 24 3 1",
"       c None",
".	c #0000FF",
"X	c #FF0000",
"                        ",
"                        ",
"                        ",
"                        ",
"                        ",
"  ...............       ",
"                .       ",
"                .       ",
"  ...........   .  XXX  ",
"            .   ...XXX  ",
"            .      XXX  ",
"  .......   .           ",
"        .   .      XXX  ",
"        .   .......XXX  ",
"        .          XXX  ",
"        .               ",
"        .          XXX  ",
"        ...........XXX  ",
"                   XXX  ",
"                        ",
"                        ",
"                        ",
"                        ",
"                        "};
