/* XPM */
static char * gschem_comp_xpm[] = {
"24 24 4 1",
" 	c None",
".	c #0000FF",
"X	c #008B00",
"o	c #000000",
"                        ",
"                        ",
"                        ",
"            .    .      ",
"     ..    ..   ..      ",
"      ..  . .  . .      ",
"     . .  . .  . .      ",
"      . .  . .  . .     ",
"                        ",
"                        ",
"       XXXXXXXX         ",
"       X       X        ",
"  oooooX        X       ",
"       X        X       ",
"       X        Xooooo  ",
"       X        X       ",
"  oooooX        X       ",
"       X       X        ",
"       XXXXXXXX         ",
"                        ",
"                        ",
"                        ",
"                        ",
"                        "};
