/* XPM */
static char * gschem_net_xpm[] = {
"24 24 5 1",
" 	c None",
".	c #FFFF00000000",
"o	c #0000FF",
"+	c #33333D3D9E9E",
"@	c #A3A32E2E3131",
"                        ",
"                        ",
"                        ",
"                        ",
"                   ...  ",
"  ooooooooooooooooo...  ",
" ++++++++++++++++++...  ",
"                  @@@   ",
"  ooooooooooo           ",
" +++++++++++o           ",
"           +o      ...  ",
"  ooooooo  +ooooooo...  ",
" +++++++o  ++++++++...  ",
"       +o         @@@   ",
"       +o               ",
"       +o          ...  ",
"       +ooooooooooo...  ",
"       ++++++++++++...  ",
"                  @@@   ",
"                        ",
"                        ",
"                        ",
"                        ",
"                        "};
