<?xml version="1.0" encoding="UTF-8" standalone="no"?>
<!-- Created with Inkscape (http://www.inkscape.org/) -->

<svg
   xmlns:dc="http://purl.org/dc/elements/1.1/"
   xmlns:cc="http://creativecommons.org/ns#"
   xmlns:rdf="http://www.w3.org/1999/02/22-rdf-syntax-ns#"
   xmlns:svg="http://www.w3.org/2000/svg"
   xmlns="http://www.w3.org/2000/svg"
   xmlns:sodipodi="http://sodipodi.sourceforge.net/DTD/sodipodi-0.dtd"
   xmlns:inkscape="http://www.inkscape.org/namespaces/inkscape"
   id="svg2"
   version="1.1"
   inkscape:version="0.48.4 r9939"
   width="399.99994"
   height="161.4064"
   xml:space="preserve"><metadata
     id="metadata8"><rdf:RDF><cc:Work
         rdf:about=""><dc:format>image/svg+xml</dc:format><dc:type
           rdf:resource="http://purl.org/dc/dcmitype/StillImage" /><dc:title></dc:title></cc:Work></rdf:RDF></metadata><defs
     id="defs6" /><sodipodi:namedview
     pagecolor="#ffffff"
     bordercolor="#666666"
     borderopacity="1"
     objecttolerance="10"
     gridtolerance="10"
     guidetolerance="10"
     inkscape:pageopacity="0"
     inkscape:pageshadow="2"
     inkscape:window-width="1152"
     inkscape:window-height="808"
     id="namedview4"
     showgrid="false"
     fit-margin-top="0"
     fit-margin-left="0"
     fit-margin-right="0"
     fit-margin-bottom="0"
     inkscape:zoom="1"
     inkscape:cx="487.27186"
     inkscape:cy="194.46631"
     inkscape:window-x="0"
     inkscape:window-y="0"
     inkscape:window-maximized="1"
     inkscape:current-layer="g10" /><g
     id="g10"
     inkscape:groupmode="layer"
     inkscape:label="ink_ext_XXXXXX"
     transform="matrix(0,1.25,1.25,0,-45.281108,-404.9349)"><g
       id="g12"
       transform="matrix(0.0443926,0,0,0.0443926,251.94215,20.143718)"><path
         d="m 1801.8,7560.05 0,-5091.88"
         style="fill:none;stroke:#000000;stroke-width:21.21619987;stroke-linecap:square;stroke-linejoin:miter;stroke-miterlimit:10;stroke-opacity:1;stroke-dasharray:none"
         id="path14"
         inkscape:connector-curvature="0" /><path
         d="m 2438.29,2478.78 c -5.86,0 -10.61,-4.76 -10.61,-10.61 0,-5.86 4.75,-10.61 10.61,-10.61 5.85,0 10.6,4.75 10.6,10.61 0,5.85 -4.75,10.61 -10.6,10.61"
         style="fill:#000000;fill-opacity:1;fill-rule:nonzero;stroke:none"
         id="path16"
         inkscape:connector-curvature="0" /><path
         d="m 2438.29,2690.94 c -5.86,0 -10.61,-4.76 -10.61,-10.61 0,-5.86 4.75,-10.61 10.61,-10.61 5.85,0 10.6,4.75 10.6,10.61 0,5.85 -4.75,10.61 -10.6,10.61"
         style="fill:#000000;fill-opacity:1;fill-rule:nonzero;stroke:none"
         id="path18"
         inkscape:connector-curvature="0" /><path
         d="m 2438.29,2903.1 c -5.86,0 -10.61,-4.75 -10.61,-10.61 0,-5.85 4.75,-10.61 10.61,-10.61 5.85,0 10.6,4.76 10.6,10.61 0,5.86 -4.75,10.61 -10.6,10.61"
         style="fill:#000000;fill-opacity:1;fill-rule:nonzero;stroke:none"
         id="path20"
         inkscape:connector-curvature="0" /><path
         d="m 2438.29,3115.26 c -5.86,0 -10.61,-4.75 -10.61,-10.61 0,-5.85 4.75,-10.6 10.61,-10.6 5.85,0 10.6,4.75 10.6,10.6 0,5.86 -4.75,10.61 -10.6,10.61"
         style="fill:#000000;fill-opacity:1;fill-rule:nonzero;stroke:none"
         id="path22"
         inkscape:connector-curvature="0" /><path
         d="m 2438.29,3327.42 c -5.86,0 -10.61,-4.75 -10.61,-10.6 0,-5.86 4.75,-10.61 10.61,-10.61 5.85,0 10.6,4.75 10.6,10.61 0,5.85 -4.75,10.6 -10.6,10.6"
         style="fill:#000000;fill-opacity:1;fill-rule:nonzero;stroke:none"
         id="path24"
         inkscape:connector-curvature="0" /><path
         d="m 2438.29,3539.59 c -5.86,0 -10.61,-4.76 -10.61,-10.61 0,-5.86 4.75,-10.61 10.61,-10.61 5.85,0 10.6,4.75 10.6,10.61 0,5.85 -4.75,10.61 -10.6,10.61"
         style="fill:#000000;fill-opacity:1;fill-rule:nonzero;stroke:none"
         id="path26"
         inkscape:connector-curvature="0" /><path
         d="m 2438.29,3751.75 c -5.86,0 -10.61,-4.75 -10.61,-10.61 0,-5.85 4.75,-10.61 10.61,-10.61 5.85,0 10.6,4.76 10.6,10.61 0,5.86 -4.75,10.61 -10.6,10.61"
         style="fill:#000000;fill-opacity:1;fill-rule:nonzero;stroke:none"
         id="path28"
         inkscape:connector-curvature="0" /><path
         d="m 2438.29,3963.91 c -5.86,0 -10.61,-4.75 -10.61,-10.61 0,-5.85 4.75,-10.61 10.61,-10.61 5.85,0 10.6,4.76 10.6,10.61 0,5.86 -4.75,10.61 -10.6,10.61"
         style="fill:#000000;fill-opacity:1;fill-rule:nonzero;stroke:none"
         id="path30"
         inkscape:connector-curvature="0" /><path
         d="m 2438.29,4176.07 c -5.86,0 -10.61,-4.75 -10.61,-10.61 0,-5.85 4.75,-10.6 10.61,-10.6 5.85,0 10.6,4.75 10.6,10.6 0,5.86 -4.75,10.61 -10.6,10.61"
         style="fill:#000000;fill-opacity:1;fill-rule:nonzero;stroke:none"
         id="path32"
         inkscape:connector-curvature="0" /><path
         d="m 2438.29,4388.23 c -5.86,0 -10.61,-4.75 -10.61,-10.61 0,-5.85 4.75,-10.6 10.61,-10.6 5.85,0 10.6,4.75 10.6,10.6 0,5.86 -4.75,10.61 -10.6,10.61"
         style="fill:#000000;fill-opacity:1;fill-rule:nonzero;stroke:none"
         id="path34"
         inkscape:connector-curvature="0" /><path
         d="m 2438.29,4600.39 c -5.86,0 -10.61,-4.75 -10.61,-10.6 0,-5.86 4.75,-10.61 10.61,-10.61 5.85,0 10.6,4.75 10.6,10.61 0,5.85 -4.75,10.6 -10.6,10.6"
         style="fill:#000000;fill-opacity:1;fill-rule:nonzero;stroke:none"
         id="path36"
         inkscape:connector-curvature="0" /><path
         d="m 2438.29,4812.55 c -5.86,0 -10.61,-4.75 -10.61,-10.6 0,-5.86 4.75,-10.61 10.61,-10.61 5.85,0 10.6,4.75 10.6,10.61 0,5.85 -4.75,10.6 -10.6,10.6"
         style="fill:#000000;fill-opacity:1;fill-rule:nonzero;stroke:none"
         id="path38"
         inkscape:connector-curvature="0" /><path
         d="m 2438.29,5024.72 c -5.86,0 -10.61,-4.76 -10.61,-10.61 0,-5.86 4.75,-10.61 10.61,-10.61 5.85,0 10.6,4.75 10.6,10.61 0,5.85 -4.75,10.61 -10.6,10.61"
         style="fill:#000000;fill-opacity:1;fill-rule:nonzero;stroke:none"
         id="path40"
         inkscape:connector-curvature="0" /><path
         d="m 2438.29,5236.88 c -5.86,0 -10.61,-4.75 -10.61,-10.61 0,-5.85 4.75,-10.61 10.61,-10.61 5.85,0 10.6,4.76 10.6,10.61 0,5.86 -4.75,10.61 -10.6,10.61"
         style="fill:#000000;fill-opacity:1;fill-rule:nonzero;stroke:none"
         id="path42"
         inkscape:connector-curvature="0" /><path
         d="m 2438.29,5449.04 c -5.86,0 -10.61,-4.75 -10.61,-10.61 0,-5.85 4.75,-10.61 10.61,-10.61 5.85,0 10.6,4.76 10.6,10.61 0,5.86 -4.75,10.61 -10.6,10.61"
         style="fill:#000000;fill-opacity:1;fill-rule:nonzero;stroke:none"
         id="path44"
         inkscape:connector-curvature="0" /><path
         d="m 2438.29,5661.2 c -5.86,0 -10.61,-4.75 -10.61,-10.61 0,-5.85 4.75,-10.6 10.61,-10.6 5.85,0 10.6,4.75 10.6,10.6 0,5.86 -4.75,10.61 -10.6,10.61"
         style="fill:#000000;fill-opacity:1;fill-rule:nonzero;stroke:none"
         id="path46"
         inkscape:connector-curvature="0" /><path
         d="m 2438.29,5873.36 c -5.86,0 -10.61,-4.75 -10.61,-10.6 0,-5.86 4.75,-10.61 10.61,-10.61 5.85,0 10.6,4.75 10.6,10.61 0,5.85 -4.75,10.6 -10.6,10.6"
         style="fill:#000000;fill-opacity:1;fill-rule:nonzero;stroke:none"
         id="path48"
         inkscape:connector-curvature="0" /><path
         d="m 2438.29,6085.53 c -5.86,0 -10.61,-4.76 -10.61,-10.61 0,-5.86 4.75,-10.61 10.61,-10.61 5.85,0 10.6,4.75 10.6,10.61 0,5.85 -4.75,10.61 -10.6,10.61"
         style="fill:#000000;fill-opacity:1;fill-rule:nonzero;stroke:none"
         id="path50"
         inkscape:connector-curvature="0" /><path
         d="m 2438.29,6297.69 c -5.86,0 -10.61,-4.75 -10.61,-10.61 0,-5.85 4.75,-10.61 10.61,-10.61 5.85,0 10.6,4.76 10.6,10.61 0,5.86 -4.75,10.61 -10.6,10.61"
         style="fill:#000000;fill-opacity:1;fill-rule:nonzero;stroke:none"
         id="path52"
         inkscape:connector-curvature="0" /><path
         d="m 2438.29,6509.85 c -5.86,0 -10.61,-4.75 -10.61,-10.61 0,-5.85 4.75,-10.61 10.61,-10.61 5.85,0 10.6,4.76 10.6,10.61 0,5.86 -4.75,10.61 -10.6,10.61"
         style="fill:#000000;fill-opacity:1;fill-rule:nonzero;stroke:none"
         id="path54"
         inkscape:connector-curvature="0" /><path
         d="m 2438.29,6722.01 c -5.86,0 -10.61,-4.75 -10.61,-10.61 0,-5.85 4.75,-10.6 10.61,-10.6 5.85,0 10.6,4.75 10.6,10.6 0,5.86 -4.75,10.61 -10.6,10.61"
         style="fill:#000000;fill-opacity:1;fill-rule:nonzero;stroke:none"
         id="path56"
         inkscape:connector-curvature="0" /><path
         d="m 2438.29,6934.18 c -5.86,0 -10.61,-4.76 -10.61,-10.61 0,-5.86 4.75,-10.61 10.61,-10.61 5.85,0 10.6,4.75 10.6,10.61 0,5.85 -4.75,10.61 -10.6,10.61"
         style="fill:#000000;fill-opacity:1;fill-rule:nonzero;stroke:none"
         id="path58"
         inkscape:connector-curvature="0" /><path
         d="m 2438.29,7146.34 c -5.86,0 -10.61,-4.76 -10.61,-10.61 0,-5.86 4.75,-10.61 10.61,-10.61 5.85,0 10.6,4.75 10.6,10.61 0,5.85 -4.75,10.61 -10.6,10.61"
         style="fill:#000000;fill-opacity:1;fill-rule:nonzero;stroke:none"
         id="path60"
         inkscape:connector-curvature="0" /><path
         d="m 2438.29,7358.5 c -5.86,0 -10.61,-4.75 -10.61,-10.61 0,-5.85 4.75,-10.61 10.61,-10.61 5.85,0 10.6,4.76 10.6,10.61 0,5.86 -4.75,10.61 -10.6,10.61"
         style="fill:#000000;fill-opacity:1;fill-rule:nonzero;stroke:none"
         id="path62"
         inkscape:connector-curvature="0" /><path
         d="m 3074.77,2680.33 0,-212.16"
         style="fill:none;stroke:#000000;stroke-width:21.21619987;stroke-linecap:square;stroke-linejoin:miter;stroke-miterlimit:10;stroke-opacity:1;stroke-dasharray:none"
         id="path64"
         inkscape:connector-curvature="0" /><path
         d="m 3074.77,3104.65 0,-212.16"
         style="fill:none;stroke:#000000;stroke-width:21.21619987;stroke-linecap:square;stroke-linejoin:miter;stroke-miterlimit:10;stroke-opacity:1;stroke-dasharray:none"
         id="path66"
         inkscape:connector-curvature="0" /><path
         d="m 3074.77,3528.98 0,-212.16"
         style="fill:none;stroke:#000000;stroke-width:21.21619987;stroke-linecap:square;stroke-linejoin:miter;stroke-miterlimit:10;stroke-opacity:1;stroke-dasharray:none"
         id="path68"
         inkscape:connector-curvature="0" /><path
         d="m 3074.77,3953.3 0,-212.16"
         style="fill:none;stroke:#000000;stroke-width:21.21619987;stroke-linecap:square;stroke-linejoin:miter;stroke-miterlimit:10;stroke-opacity:1;stroke-dasharray:none"
         id="path70"
         inkscape:connector-curvature="0" /><path
         d="m 3074.77,4377.62 0,-212.16"
         style="fill:none;stroke:#000000;stroke-width:21.21619987;stroke-linecap:square;stroke-linejoin:miter;stroke-miterlimit:10;stroke-opacity:1;stroke-dasharray:none"
         id="path72"
         inkscape:connector-curvature="0" /><path
         d="m 3074.77,4801.95 0,-212.16"
         style="fill:none;stroke:#000000;stroke-width:21.21619987;stroke-linecap:square;stroke-linejoin:miter;stroke-miterlimit:10;stroke-opacity:1;stroke-dasharray:none"
         id="path74"
         inkscape:connector-curvature="0" /><path
         d="m 3074.77,5226.27 0,-212.16"
         style="fill:none;stroke:#000000;stroke-width:21.21619987;stroke-linecap:square;stroke-linejoin:miter;stroke-miterlimit:10;stroke-opacity:1;stroke-dasharray:none"
         id="path76"
         inkscape:connector-curvature="0" /><path
         d="m 3074.77,5650.59 0,-212.16"
         style="fill:none;stroke:#000000;stroke-width:21.21619987;stroke-linecap:square;stroke-linejoin:miter;stroke-miterlimit:10;stroke-opacity:1;stroke-dasharray:none"
         id="path78"
         inkscape:connector-curvature="0" /><path
         d="m 3074.77,6074.92 0,-212.16"
         style="fill:none;stroke:#000000;stroke-width:21.21619987;stroke-linecap:square;stroke-linejoin:miter;stroke-miterlimit:10;stroke-opacity:1;stroke-dasharray:none"
         id="path80"
         inkscape:connector-curvature="0" /><path
         d="m 3074.77,6499.24 0,-212.16"
         style="fill:none;stroke:#000000;stroke-width:21.21619987;stroke-linecap:square;stroke-linejoin:miter;stroke-miterlimit:10;stroke-opacity:1;stroke-dasharray:none"
         id="path82"
         inkscape:connector-curvature="0" /><path
         d="m 3074.77,6923.57 0,-212.17"
         style="fill:none;stroke:#000000;stroke-width:21.21619987;stroke-linecap:square;stroke-linejoin:miter;stroke-miterlimit:10;stroke-opacity:1;stroke-dasharray:none"
         id="path84"
         inkscape:connector-curvature="0" /><path
         d="m 3074.77,7347.89 0,-212.16"
         style="fill:none;stroke:#000000;stroke-width:21.21619987;stroke-linecap:square;stroke-linejoin:miter;stroke-miterlimit:10;stroke-opacity:1;stroke-dasharray:none"
         id="path86"
         inkscape:connector-curvature="0" /><path
         d="m 3711.26,2680.33 0,-212.16"
         style="fill:none;stroke:#000000;stroke-width:21.21619987;stroke-linecap:square;stroke-linejoin:miter;stroke-miterlimit:10;stroke-opacity:1;stroke-dasharray:none"
         id="path88"
         inkscape:connector-curvature="0" /><path
         d="m 3711.26,2903.1 c -5.86,0 -10.61,-4.75 -10.61,-10.61 0,-5.85 4.75,-10.61 10.61,-10.61 5.85,0 10.61,4.76 10.61,10.61 0,5.86 -4.76,10.61 -10.61,10.61"
         style="fill:#000000;fill-opacity:1;fill-rule:nonzero;stroke:none"
         id="path90"
         inkscape:connector-curvature="0" /><path
         d="m 3711.26,3316.82 0,-212.17"
         style="fill:none;stroke:#000000;stroke-width:21.21619987;stroke-linecap:square;stroke-linejoin:miter;stroke-miterlimit:10;stroke-opacity:1;stroke-dasharray:none"
         id="path92"
         inkscape:connector-curvature="0" /><path
         d="m 3711.26,3539.59 c -5.86,0 -10.61,-4.76 -10.61,-10.61 0,-5.86 4.75,-10.61 10.61,-10.61 5.85,0 10.61,4.75 10.61,10.61 0,5.85 -4.76,10.61 -10.61,10.61"
         style="fill:#000000;fill-opacity:1;fill-rule:nonzero;stroke:none"
         id="path94"
         inkscape:connector-curvature="0" /><path
         d="m 3711.26,3953.3 0,-212.16"
         style="fill:none;stroke:#000000;stroke-width:21.21619987;stroke-linecap:square;stroke-linejoin:miter;stroke-miterlimit:10;stroke-opacity:1;stroke-dasharray:none"
         id="path96"
         inkscape:connector-curvature="0" /><path
         d="m 3711.26,4176.07 c -5.86,0 -10.61,-4.75 -10.61,-10.61 0,-5.85 4.75,-10.6 10.61,-10.6 5.85,0 10.61,4.75 10.61,10.6 0,5.86 -4.76,10.61 -10.61,10.61"
         style="fill:#000000;fill-opacity:1;fill-rule:nonzero;stroke:none"
         id="path98"
         inkscape:connector-curvature="0" /><path
         d="m 3711.26,4589.79 0,-212.17"
         style="fill:none;stroke:#000000;stroke-width:21.21619987;stroke-linecap:square;stroke-linejoin:miter;stroke-miterlimit:10;stroke-opacity:1;stroke-dasharray:none"
         id="path100"
         inkscape:connector-curvature="0" /><path
         d="m 3711.26,4812.55 c -5.86,0 -10.61,-4.75 -10.61,-10.6 0,-5.86 4.75,-10.61 10.61,-10.61 5.85,0 10.61,4.75 10.61,10.61 0,5.85 -4.76,10.6 -10.61,10.6"
         style="fill:#000000;fill-opacity:1;fill-rule:nonzero;stroke:none"
         id="path102"
         inkscape:connector-curvature="0" /><path
         d="m 3711.26,5226.27 0,-212.16"
         style="fill:none;stroke:#000000;stroke-width:21.21619987;stroke-linecap:square;stroke-linejoin:miter;stroke-miterlimit:10;stroke-opacity:1;stroke-dasharray:none"
         id="path104"
         inkscape:connector-curvature="0" /><path
         d="m 3711.26,5449.04 c -5.86,0 -10.61,-4.75 -10.61,-10.61 0,-5.85 4.75,-10.61 10.61,-10.61 5.85,0 10.61,4.76 10.61,10.61 0,5.86 -4.76,10.61 -10.61,10.61"
         style="fill:#000000;fill-opacity:1;fill-rule:nonzero;stroke:none"
         id="path106"
         inkscape:connector-curvature="0" /><path
         d="m 3711.26,5862.76 0,-212.17"
         style="fill:none;stroke:#000000;stroke-width:21.21619987;stroke-linecap:square;stroke-linejoin:miter;stroke-miterlimit:10;stroke-opacity:1;stroke-dasharray:none"
         id="path108"
         inkscape:connector-curvature="0" /><path
         d="m 3711.26,6085.53 c -5.86,0 -10.61,-4.76 -10.61,-10.61 0,-5.86 4.75,-10.61 10.61,-10.61 5.85,0 10.61,4.75 10.61,10.61 0,5.85 -4.76,10.61 -10.61,10.61"
         style="fill:#000000;fill-opacity:1;fill-rule:nonzero;stroke:none"
         id="path110"
         inkscape:connector-curvature="0" /><path
         d="m 3711.26,6499.24 0,-212.16"
         style="fill:none;stroke:#000000;stroke-width:21.21619987;stroke-linecap:square;stroke-linejoin:miter;stroke-miterlimit:10;stroke-opacity:1;stroke-dasharray:none"
         id="path112"
         inkscape:connector-curvature="0" /><path
         d="m 3711.26,6722.01 c -5.86,0 -10.61,-4.75 -10.61,-10.61 0,-5.85 4.75,-10.6 10.61,-10.6 5.85,0 10.61,4.75 10.61,10.6 0,5.86 -4.76,10.61 -10.61,10.61"
         style="fill:#000000;fill-opacity:1;fill-rule:nonzero;stroke:none"
         id="path114"
         inkscape:connector-curvature="0" /><path
         d="m 3711.26,7135.73 0,-212.16"
         style="fill:none;stroke:#000000;stroke-width:21.21619987;stroke-linecap:square;stroke-linejoin:miter;stroke-miterlimit:10;stroke-opacity:1;stroke-dasharray:none"
         id="path116"
         inkscape:connector-curvature="0" /><path
         d="m 3711.26,7358.5 c -5.86,0 -10.61,-4.75 -10.61,-10.61 0,-5.85 4.75,-10.61 10.61,-10.61 5.85,0 10.61,4.76 10.61,10.61 0,5.86 -4.76,10.61 -10.61,10.61"
         style="fill:#000000;fill-opacity:1;fill-rule:nonzero;stroke:none"
         id="path118"
         inkscape:connector-curvature="0" /><path
         d="m 4347.74,2680.33 0,-212.16"
         style="fill:none;stroke:#000000;stroke-width:21.21619987;stroke-linecap:square;stroke-linejoin:miter;stroke-miterlimit:10;stroke-opacity:1;stroke-dasharray:none"
         id="path120"
         inkscape:connector-curvature="0" /><path
         d="m 4347.74,2903.1 c -5.85,0 -10.6,-4.75 -10.6,-10.61 0,-5.85 4.75,-10.61 10.6,-10.61 5.86,0 10.61,4.76 10.61,10.61 0,5.86 -4.75,10.61 -10.61,10.61"
         style="fill:#000000;fill-opacity:1;fill-rule:nonzero;stroke:none"
         id="path122"
         inkscape:connector-curvature="0" /><path
         d="m 4347.74,3115.26 c -5.85,0 -10.6,-4.75 -10.6,-10.61 0,-5.85 4.75,-10.6 10.6,-10.6 5.86,0 10.61,4.75 10.61,10.6 0,5.86 -4.75,10.61 -10.61,10.61"
         style="fill:#000000;fill-opacity:1;fill-rule:nonzero;stroke:none"
         id="path124"
         inkscape:connector-curvature="0" /><path
         d="m 4347.74,3528.98 0,-212.16"
         style="fill:none;stroke:#000000;stroke-width:21.21619987;stroke-linecap:square;stroke-linejoin:miter;stroke-miterlimit:10;stroke-opacity:1;stroke-dasharray:none"
         id="path126"
         inkscape:connector-curvature="0" /><path
         d="m 4347.74,3751.75 c -5.85,0 -10.6,-4.75 -10.6,-10.61 0,-5.85 4.75,-10.61 10.6,-10.61 5.86,0 10.61,4.76 10.61,10.61 0,5.86 -4.75,10.61 -10.61,10.61"
         style="fill:#000000;fill-opacity:1;fill-rule:nonzero;stroke:none"
         id="path128"
         inkscape:connector-curvature="0" /><path
         d="m 4347.74,3963.91 c -5.85,0 -10.6,-4.75 -10.6,-10.61 0,-5.85 4.75,-10.61 10.6,-10.61 5.86,0 10.61,4.76 10.61,10.61 0,5.86 -4.75,10.61 -10.61,10.61"
         style="fill:#000000;fill-opacity:1;fill-rule:nonzero;stroke:none"
         id="path130"
         inkscape:connector-curvature="0" /><path
         d="m 4347.74,4377.62 0,-212.16"
         style="fill:none;stroke:#000000;stroke-width:21.21619987;stroke-linecap:square;stroke-linejoin:miter;stroke-miterlimit:10;stroke-opacity:1;stroke-dasharray:none"
         id="path132"
         inkscape:connector-curvature="0" /><path
         d="m 4347.74,4600.39 c -5.85,0 -10.6,-4.75 -10.6,-10.6 0,-5.86 4.75,-10.61 10.6,-10.61 5.86,0 10.61,4.75 10.61,10.61 0,5.85 -4.75,10.6 -10.61,10.6"
         style="fill:#000000;fill-opacity:1;fill-rule:nonzero;stroke:none"
         id="path134"
         inkscape:connector-curvature="0" /><path
         d="m 4347.74,4812.55 c -5.85,0 -10.6,-4.75 -10.6,-10.6 0,-5.86 4.75,-10.61 10.6,-10.61 5.86,0 10.61,4.75 10.61,10.61 0,5.85 -4.75,10.6 -10.61,10.6"
         style="fill:#000000;fill-opacity:1;fill-rule:nonzero;stroke:none"
         id="path136"
         inkscape:connector-curvature="0" /><path
         d="m 4347.74,5226.27 0,-212.16"
         style="fill:none;stroke:#000000;stroke-width:21.21619987;stroke-linecap:square;stroke-linejoin:miter;stroke-miterlimit:10;stroke-opacity:1;stroke-dasharray:none"
         id="path138"
         inkscape:connector-curvature="0" /><path
         d="m 4347.74,5449.04 c -5.85,0 -10.6,-4.75 -10.6,-10.61 0,-5.85 4.75,-10.61 10.6,-10.61 5.86,0 10.61,4.76 10.61,10.61 0,5.86 -4.75,10.61 -10.61,10.61"
         style="fill:#000000;fill-opacity:1;fill-rule:nonzero;stroke:none"
         id="path140"
         inkscape:connector-curvature="0" /><path
         d="m 4347.74,5661.2 c -5.85,0 -10.6,-4.75 -10.6,-10.61 0,-5.85 4.75,-10.6 10.6,-10.6 5.86,0 10.61,4.75 10.61,10.6 0,5.86 -4.75,10.61 -10.61,10.61"
         style="fill:#000000;fill-opacity:1;fill-rule:nonzero;stroke:none"
         id="path142"
         inkscape:connector-curvature="0" /><path
         d="m 4347.74,6074.92 0,-212.16"
         style="fill:none;stroke:#000000;stroke-width:21.21619987;stroke-linecap:square;stroke-linejoin:miter;stroke-miterlimit:10;stroke-opacity:1;stroke-dasharray:none"
         id="path144"
         inkscape:connector-curvature="0" /><path
         d="m 4347.74,6297.69 c -5.85,0 -10.6,-4.75 -10.6,-10.61 0,-5.85 4.75,-10.61 10.6,-10.61 5.86,0 10.61,4.76 10.61,10.61 0,5.86 -4.75,10.61 -10.61,10.61"
         style="fill:#000000;fill-opacity:1;fill-rule:nonzero;stroke:none"
         id="path146"
         inkscape:connector-curvature="0" /><path
         d="m 4347.74,6509.85 c -5.85,0 -10.6,-4.75 -10.6,-10.61 0,-5.85 4.75,-10.61 10.6,-10.61 5.86,0 10.61,4.76 10.61,10.61 0,5.86 -4.75,10.61 -10.61,10.61"
         style="fill:#000000;fill-opacity:1;fill-rule:nonzero;stroke:none"
         id="path148"
         inkscape:connector-curvature="0" /><path
         d="m 4347.74,6923.57 0,-212.17"
         style="fill:none;stroke:#000000;stroke-width:21.21619987;stroke-linecap:square;stroke-linejoin:miter;stroke-miterlimit:10;stroke-opacity:1;stroke-dasharray:none"
         id="path150"
         inkscape:connector-curvature="0" /><path
         d="m 4347.74,7146.34 c -5.85,0 -10.6,-4.76 -10.6,-10.61 0,-5.86 4.75,-10.61 10.6,-10.61 5.86,0 10.61,4.75 10.61,10.61 0,5.85 -4.75,10.61 -10.61,10.61"
         style="fill:#000000;fill-opacity:1;fill-rule:nonzero;stroke:none"
         id="path152"
         inkscape:connector-curvature="0" /><path
         d="m 4347.74,7146.34 c -5.85,0 -10.6,-4.76 -10.6,-10.61 0,-5.86 4.75,-10.61 10.6,-10.61 5.86,0 10.61,4.75 10.61,10.61 0,5.85 -4.75,10.61 -10.61,10.61"
         style="fill:#000000;fill-opacity:1;fill-rule:nonzero;stroke:none"
         id="path154"
         inkscape:connector-curvature="0" /><g
         id="g156"
         transform="scale(10,10)"><text
           transform="matrix(0,1,1,0,190.128,104.411)"
           id="text158"><tspan
             style="font-size:38.30699921px;font-variant:normal;font-weight:normal;writing-mode:lr-tb;fill:#000000;fill-opacity:1;fill-rule:nonzero;stroke:none;font-family:Helvetica;-inkscape-font-specification:Helvetica"
             x="0 19.1535 40.45219 48.956345 57.460499"
             y="0"
             sodipodi:role="line"
             id="tspan160">solid</tspan><tspan
             style="font-size:38.30699921px;font-variant:normal;font-weight:normal;writing-mode:lr-tb;fill:#000000;fill-opacity:1;fill-rule:nonzero;stroke:none;font-family:Helvetica;-inkscape-font-specification:Helvetica"
             x="-27.7344 -6.435708 14.862984 25.512329 36.161674 57.460369"
             y="63.648399"
             sodipodi:role="line"
             id="tspan162">dotted</tspan><tspan
             style="font-size:38.30699921px;font-variant:normal;font-weight:normal;writing-mode:lr-tb;fill:#000000;fill-opacity:1;fill-rule:nonzero;stroke:none;font-family:Helvetica;-inkscape-font-specification:Helvetica"
             x="-46.887501 -25.588808 -4.2901158 14.863384 36.162075 57.46077"
             y="127.2968"
             sodipodi:role="line"
             id="tspan164">dashed</tspan><tspan
             style="font-size:38.30699921px;font-variant:normal;font-weight:normal;writing-mode:lr-tb;fill:#000000;fill-opacity:1;fill-rule:nonzero;stroke:none;font-family:Helvetica;-inkscape-font-specification:Helvetica"
             x="-27.6957 -8.5422001 12.756492 34.055183 44.704529 66.00322"
             y="190.11279"
             sodipodi:role="line"
             id="tspan166">center</tspan><tspan
             style="font-size:38.30699921px;font-variant:normal;font-weight:normal;writing-mode:lr-tb;fill:#000000;fill-opacity:1;fill-rule:nonzero;stroke:none;font-family:Helvetica;-inkscape-font-specification:Helvetica"
             x="-70.292999 -48.994308 -27.695616 -6.396924 14.901768 25.551113 46.849808"
             y="254.5941"
             sodipodi:role="line"
             id="tspan168">phantom</tspan></text>
</g></g></g></svg>