/* XPM */
static char * gschem_comp_xpm[] = {
"24 24 5 1",
" 	c None",
".	c #00008B8B0000",
"X	c #000050500000",
"o	c #000000000000",
"O	c #757573737373",
"                        ",
"                        ",
"                        ",
"                        ",
"                        ",
"                        ",
"                        ",
"        ........        ",
"       X.       .       ",
"   ooooo.        .      ",
"  OOOOOX.        .      ",
"       X.        .ooooo ",
"       X.        .OOOO  ",
"   ooooo.        .      ",
"  OOOOOX.       .X      ",
"       X........X       ",
"       XXXXXXXXX        ",
"                        ",
"                        ",
"                        ",
"                        ",
"                        ",
"                        ",
"                        "};
