/* XPM */
static char * gschem_text_xpm[] = {
"24 24 5 1",
" 	c None",
".	c #6B6B6B6B6B6B",
"X	c #000000000000",
"o	c #000050500000",
"O	c #00008B8B0000",
"                        ",
"                        ",
"                        ",
"                        ",
"                 X      ",
"                .X      ",
"      oOOOOOOOO .X      ",
"      oOOoOOoOO .X      ",
"      oOooOOooO .X      ",
"      oo oOO oo .X      ",
"         oOO    .X      ",
"         oOO    .X      ",
"         oOO    .X      ",
"         oOO    .X      ",
"         oOO    .X      ",
"        oOOOO   .X      ",
"        ooooo   .X      ",
"                .X      ",
"                .       ",
"                        ",
"                        ",
"                        ",
"                        ",
"                        "};
