/* XPM */
static char * gschem_rotate_xpm[] = {
"24 24 2 1",
" 	c None",
".	c #0000FF",
"                        ",
"          .             ",
"         ..             ",
"        ...             ",
"       ........         ",
"        ...    ..       ",
"         ..      .      ",
"          .       .     ",
"                   .    ",
"                   .    ",
"     .              .   ",
"    .               .   ",
"    .               .   ",
"    .               .   ",
"    .               .   ",
"     .             .    ",
"     .             .    ",
"      .           .     ",
"       .         .      ",
"        ..     ..       ",
"          .....         ",
"                        ",
"                        ",
"                        "};
