/* XPM */
static char * gschem_rotate_xpm[] = {
"24 24 3 1",
" 	c None",
".	c #000000",
"X	c #0000FF",
"                        ",
"                        ",
"           .            ",
"           .            ",
" .         .         .  ",
" ..        .        ..  ",
" ..        .        ..  ",
" . .       .       . .  ",
" . .       .       . .  ",
" .  .      . X    .  .  ",
" .  .      . XX   .  .  ",
" .   . XXXXXXXXX .   .  ",
" .   .     . XX  .   .  ",
" .    .    . X  .    .  ",
" .    .    .    .    .  ",
" .     .   .   .     .  ",
" .     .   .   .     .  ",
" .      .  .  .      .  ",
" .      .  .  .      .  ",
" ......... . .........  ",
"           .            ",
"           .            ",
"                        ",
"                        "};
