/* XPM */
static char * gschem_delete_xpm[] = {
"24 24 3 1",
" 	c None",
".	c #FF0000",
"X	c #FFFFFF",
"                        ",
"                        ",
"                        ",
"                        ",
"           ..           ",
"         ......         ",
"        ........        ",
"       ..  ..  ..       ",
"       .. X.. X..       ",
"        ........        ",
"         ......         ",
"          ....          ",
"     .    ....    .     ",
"     ..   ....   ..     ",
"      ..   ..   ..      ",
"       ...    ...       ",
"         ......         ",
"      ............      ",
"     ...        ...     ",
"                        ",
"                        ",
"                        ",
"                        ",
"                        "};
